<mxfile host="app.diagrams.net" modified="2023-07-18T17:08:27.419Z" agent="Mozilla/5.0 (X11; Linux x86_64; rv:109.0) Gecko/20100101 Firefox/111.0" etag="Anhcj4FlXHXQpvqZtQ70" version="21.6.2" type="device">
  <diagram name="Page-1" id="2TG5aAPClpMXtL8XF5Aa">
    <mxGraphModel dx="815" dy="690" grid="1" gridSize="10" guides="1" tooltips="1" connect="1" arrows="1" fold="1" page="1" pageScale="1" pageWidth="850" pageHeight="1100" math="0" shadow="0">
      <root>
        <mxCell id="0" />
        <mxCell id="1" parent="0" />
        <mxCell id="PvX-0-tQjrERzgf0cjXr-11" style="edgeStyle=orthogonalEdgeStyle;rounded=0;orthogonalLoop=1;jettySize=auto;html=1;exitX=0.5;exitY=1;exitDx=0;exitDy=0;entryX=0.5;entryY=0;entryDx=0;entryDy=0;" edge="1" parent="1" source="PvX-0-tQjrERzgf0cjXr-2" target="PvX-0-tQjrERzgf0cjXr-3">
          <mxGeometry relative="1" as="geometry" />
        </mxCell>
        <mxCell id="PvX-0-tQjrERzgf0cjXr-2" value="" style="rounded=1;whiteSpace=wrap;html=1;fillColor=#d5e8d4;strokeColor=#000000;" vertex="1" parent="1">
          <mxGeometry x="330" y="80" width="210" height="110" as="geometry" />
        </mxCell>
        <mxCell id="PvX-0-tQjrERzgf0cjXr-10" style="edgeStyle=orthogonalEdgeStyle;rounded=0;orthogonalLoop=1;jettySize=auto;html=1;exitX=0.5;exitY=1;exitDx=0;exitDy=0;entryX=0.5;entryY=0;entryDx=0;entryDy=0;" edge="1" parent="1" source="PvX-0-tQjrERzgf0cjXr-3" target="PvX-0-tQjrERzgf0cjXr-4">
          <mxGeometry relative="1" as="geometry" />
        </mxCell>
        <mxCell id="PvX-0-tQjrERzgf0cjXr-3" value="" style="rounded=1;whiteSpace=wrap;html=1;fillColor=#f8cecc;strokeColor=#000000;" vertex="1" parent="1">
          <mxGeometry x="330" y="240" width="210" height="110" as="geometry" />
        </mxCell>
        <mxCell id="PvX-0-tQjrERzgf0cjXr-9" style="edgeStyle=orthogonalEdgeStyle;rounded=0;orthogonalLoop=1;jettySize=auto;html=1;exitX=0.5;exitY=1;exitDx=0;exitDy=0;entryX=0.5;entryY=0;entryDx=0;entryDy=0;" edge="1" parent="1" source="PvX-0-tQjrERzgf0cjXr-4" target="PvX-0-tQjrERzgf0cjXr-5">
          <mxGeometry relative="1" as="geometry" />
        </mxCell>
        <mxCell id="PvX-0-tQjrERzgf0cjXr-4" value="" style="rounded=1;whiteSpace=wrap;html=1;fillColor=#e1d5e7;strokeColor=#000000;" vertex="1" parent="1">
          <mxGeometry x="330" y="400" width="210" height="110" as="geometry" />
        </mxCell>
        <mxCell id="PvX-0-tQjrERzgf0cjXr-35" style="edgeStyle=orthogonalEdgeStyle;rounded=0;orthogonalLoop=1;jettySize=auto;html=1;exitX=1;exitY=0.5;exitDx=0;exitDy=0;entryX=1;entryY=0.5;entryDx=0;entryDy=0;" edge="1" parent="1" source="PvX-0-tQjrERzgf0cjXr-5" target="PvX-0-tQjrERzgf0cjXr-4">
          <mxGeometry relative="1" as="geometry">
            <Array as="points">
              <mxPoint x="580" y="625" />
              <mxPoint x="580" y="455" />
            </Array>
          </mxGeometry>
        </mxCell>
        <mxCell id="PvX-0-tQjrERzgf0cjXr-5" value="" style="rounded=1;whiteSpace=wrap;html=1;fillColor=#dae8fc;strokeColor=#000000;" vertex="1" parent="1">
          <mxGeometry x="330" y="570" width="210" height="110" as="geometry" />
        </mxCell>
        <mxCell id="PvX-0-tQjrERzgf0cjXr-6" value="Aladdin" style="text;html=1;align=center;verticalAlign=middle;resizable=0;points=[];autosize=1;strokeColor=none;fillColor=none;" vertex="1" parent="1">
          <mxGeometry x="340" y="580" width="60" height="30" as="geometry" />
        </mxCell>
        <mxCell id="PvX-0-tQjrERzgf0cjXr-8" value="" style="rounded=1;whiteSpace=wrap;html=1;fillColor=#dae8fc;strokeColor=#000000;" vertex="1" parent="1">
          <mxGeometry x="410" y="610" width="120" height="60" as="geometry" />
        </mxCell>
        <mxCell id="PvX-0-tQjrERzgf0cjXr-7" value="NVDLA" style="text;html=1;align=center;verticalAlign=middle;resizable=0;points=[];autosize=1;strokeColor=none;fillColor=none;" vertex="1" parent="1">
          <mxGeometry x="440" y="625" width="60" height="30" as="geometry" />
        </mxCell>
        <mxCell id="PvX-0-tQjrERzgf0cjXr-12" value="Python Client" style="text;html=1;align=center;verticalAlign=middle;resizable=0;points=[];autosize=1;strokeColor=none;fillColor=none;" vertex="1" parent="1">
          <mxGeometry x="335" y="80" width="90" height="30" as="geometry" />
        </mxCell>
        <mxCell id="PvX-0-tQjrERzgf0cjXr-14" value="" style="rounded=1;whiteSpace=wrap;html=1;fillColor=#d5e8d4;strokeColor=#000000;" vertex="1" parent="1">
          <mxGeometry x="370" y="110" width="160" height="70" as="geometry" />
        </mxCell>
        <mxCell id="PvX-0-tQjrERzgf0cjXr-13" value="High Level Model Description" style="text;html=1;align=center;verticalAlign=middle;resizable=0;points=[];autosize=1;strokeColor=none;fillColor=none;" vertex="1" parent="1">
          <mxGeometry x="360" y="130" width="180" height="30" as="geometry" />
        </mxCell>
        <mxCell id="PvX-0-tQjrERzgf0cjXr-15" value="Tiling and Data Layout Optimizer" style="text;html=1;align=center;verticalAlign=middle;resizable=0;points=[];autosize=1;strokeColor=none;fillColor=none;" vertex="1" parent="1">
          <mxGeometry x="335" y="280" width="200" height="30" as="geometry" />
        </mxCell>
        <mxCell id="PvX-0-tQjrERzgf0cjXr-16" value="Runtime Scheduler" style="text;html=1;align=center;verticalAlign=middle;resizable=0;points=[];autosize=1;strokeColor=none;fillColor=none;" vertex="1" parent="1">
          <mxGeometry x="330" y="400" width="130" height="30" as="geometry" />
        </mxCell>
        <mxCell id="PvX-0-tQjrERzgf0cjXr-24" value="" style="rounded=1;whiteSpace=wrap;html=1;fillColor=#ffe6cc;strokeColor=#d79b00;" vertex="1" parent="1">
          <mxGeometry x="450" y="195" width="95" height="35" as="geometry" />
        </mxCell>
        <mxCell id="PvX-0-tQjrERzgf0cjXr-26" value="&amp;nbsp;" style="text;whiteSpace=wrap;html=1;" vertex="1" parent="1">
          <mxGeometry x="310" y="450" width="40" height="40" as="geometry" />
        </mxCell>
        <mxCell id="PvX-0-tQjrERzgf0cjXr-17" value="Network Graph" style="text;html=1;align=center;verticalAlign=middle;resizable=0;points=[];autosize=1;strokeColor=none;fillColor=none;" vertex="1" parent="1">
          <mxGeometry x="445" y="197.5" width="100" height="30" as="geometry" />
        </mxCell>
        <mxCell id="PvX-0-tQjrERzgf0cjXr-30" value="" style="rounded=1;whiteSpace=wrap;html=1;fillColor=#e1d5e7;strokeColor=#000000;" vertex="1" parent="1">
          <mxGeometry x="417.5" y="455" width="105" height="35" as="geometry" />
        </mxCell>
        <mxCell id="PvX-0-tQjrERzgf0cjXr-21" value="Operator Schedule" style="text;html=1;align=center;verticalAlign=middle;resizable=0;points=[];autosize=1;strokeColor=none;fillColor=none;" vertex="1" parent="1">
          <mxGeometry x="410" y="460" width="120" height="30" as="geometry" />
        </mxCell>
        <mxCell id="PvX-0-tQjrERzgf0cjXr-31" value="" style="rounded=1;whiteSpace=wrap;html=1;fillColor=#ffe6cc;strokeColor=#d79b00;" vertex="1" parent="1">
          <mxGeometry x="452.5" y="360" width="95" height="35" as="geometry" />
        </mxCell>
        <mxCell id="PvX-0-tQjrERzgf0cjXr-32" value="&lt;div&gt;Optimized&lt;/div&gt;&lt;div&gt;Network Graph&lt;br&gt;&lt;/div&gt;" style="text;html=1;align=center;verticalAlign=middle;resizable=0;points=[];autosize=1;strokeColor=none;fillColor=none;" vertex="1" parent="1">
          <mxGeometry x="447.5" y="357.5" width="100" height="40" as="geometry" />
        </mxCell>
        <mxCell id="PvX-0-tQjrERzgf0cjXr-33" value="" style="rounded=1;whiteSpace=wrap;html=1;fillColor=#ffe6cc;strokeColor=#d79b00;" vertex="1" parent="1">
          <mxGeometry x="445" y="522.5" width="95" height="35" as="geometry" />
        </mxCell>
        <mxCell id="PvX-0-tQjrERzgf0cjXr-34" value="&lt;div&gt;Operator&lt;/div&gt;&lt;div&gt;Kernel&lt;br&gt;&lt;/div&gt;" style="text;html=1;align=center;verticalAlign=middle;resizable=0;points=[];autosize=1;strokeColor=none;fillColor=none;" vertex="1" parent="1">
          <mxGeometry x="455" y="520" width="70" height="40" as="geometry" />
        </mxCell>
        <mxCell id="PvX-0-tQjrERzgf0cjXr-36" value="" style="rounded=1;whiteSpace=wrap;html=1;fillColor=#ffe6cc;strokeColor=#d79b00;" vertex="1" parent="1">
          <mxGeometry x="600" y="522.5" width="95" height="35" as="geometry" />
        </mxCell>
        <mxCell id="PvX-0-tQjrERzgf0cjXr-37" value="&lt;div&gt;Operator&lt;/div&gt;&lt;div&gt;Output&lt;br&gt;&lt;/div&gt;" style="text;html=1;align=center;verticalAlign=middle;resizable=0;points=[];autosize=1;strokeColor=none;fillColor=none;" vertex="1" parent="1">
          <mxGeometry x="612.5" y="520" width="70" height="40" as="geometry" />
        </mxCell>
      </root>
    </mxGraphModel>
  </diagram>
</mxfile>
